<svg id="visual" viewBox="0 0 900 600" width="900" height="600" xmlns="http://www.w3.org/2000/svg" xmlns:xlink="http://www.w3.org/1999/xlink" version="1.1"><rect x="0" y="0" width="900" height="600" fill="#001220"></rect><path d="M0 371L21.5 370.8C43 370.7 86 370.3 128.8 374.7C171.7 379 214.3 388 257.2 394.8C300 401.7 343 406.3 385.8 400C428.7 393.7 471.3 376.3 514.2 366.8C557 357.3 600 355.7 642.8 363.5C685.7 371.3 728.3 388.7 771.2 403.2C814 417.7 857 429.3 878.5 435.2L900 441L900 601L878.5 601C857 601 814 601 771.2 601C728.3 601 685.7 601 642.8 601C600 601 557 601 514.2 601C471.3 601 428.7 601 385.8 601C343 601 300 601 257.2 601C214.3 601 171.7 601 128.8 601C86 601 43 601 21.5 601L0 601Z" fill="#fa7268"></path><path d="M0 413L21.5 410.8C43 408.7 86 404.3 128.8 413.2C171.7 422 214.3 444 257.2 446.3C300 448.7 343 431.3 385.8 430.3C428.7 429.3 471.3 444.7 514.2 452C557 459.3 600 458.7 642.8 456.8C685.7 455 728.3 452 771.2 446.2C814 440.3 857 431.7 878.5 427.3L900 423L900 601L878.5 601C857 601 814 601 771.2 601C728.3 601 685.7 601 642.8 601C600 601 557 601 514.2 601C471.3 601 428.7 601 385.8 601C343 601 300 601 257.2 601C214.3 601 171.7 601 128.8 601C86 601 43 601 21.5 601L0 601Z" fill="#ef5f67"></path><path d="M0 500L21.5 492.7C43 485.3 86 470.7 128.8 470.3C171.7 470 214.3 484 257.2 485.5C300 487 343 476 385.8 477.5C428.7 479 471.3 493 514.2 490.7C557 488.3 600 469.7 642.8 461C685.7 452.3 728.3 453.7 771.2 460C814 466.3 857 477.7 878.5 483.3L900 489L900 601L878.5 601C857 601 814 601 771.2 601C728.3 601 685.7 601 642.8 601C600 601 557 601 514.2 601C471.3 601 428.7 601 385.8 601C343 601 300 601 257.2 601C214.3 601 171.7 601 128.8 601C86 601 43 601 21.5 601L0 601Z" fill="#e34c67"></path><path d="M0 510L21.5 512.8C43 515.7 86 521.3 128.8 526.5C171.7 531.7 214.3 536.3 257.2 537.2C300 538 343 535 385.8 534.5C428.7 534 471.3 536 514.2 537.5C557 539 600 540 642.8 539.3C685.7 538.7 728.3 536.3 771.2 528.8C814 521.3 857 508.7 878.5 502.3L900 496L900 601L878.5 601C857 601 814 601 771.2 601C728.3 601 685.7 601 642.8 601C600 601 557 601 514.2 601C471.3 601 428.7 601 385.8 601C343 601 300 601 257.2 601C214.3 601 171.7 601 128.8 601C86 601 43 601 21.5 601L0 601Z" fill="#d53867"></path><path d="M0 533L21.5 535.3C43 537.7 86 542.3 128.8 543.8C171.7 545.3 214.3 543.7 257.2 546.3C300 549 343 556 385.8 559.8C428.7 563.7 471.3 564.3 514.2 560C557 555.7 600 546.3 642.8 540.5C685.7 534.7 728.3 532.3 771.2 532.2C814 532 857 534 878.5 535L900 536L900 601L878.5 601C857 601 814 601 771.2 601C728.3 601 685.7 601 642.8 601C600 601 557 601 514.2 601C471.3 601 428.7 601 385.8 601C343 601 300 601 257.2 601C214.3 601 171.7 601 128.8 601C86 601 43 601 21.5 601L0 601Z" fill="#c62368"></path></svg>